<svg xmlns="http://www.w3.org/2000/svg" xmlns:xlink="http://www.w3.org/1999/xlink" xmlns:inkscape="http://www.inkscape.org/namespaces/inkscape" version="1.1" width="301.87574" height="84" viewBox="0 0 301.87574 84">
<path transform="matrix(1,0,0,-1,2,86)" d="M0 84V86H-2V84H0ZM80 84H82V86H80V84ZM80 4V2H82V4H80ZM0 4H-2V2H0V4ZM0 82H80V86H0V82ZM78 84V4H82V84H78ZM80 6H0V2H80V6ZM2 4V84H-2V4H2Z" fill="#ffffff"/>
<path transform="matrix(1,0,0,-1,2,86)" d="M0 84H80V4H0V84Z" fill="#e84601"/>
<path transform="matrix(1,0,0,-1,8.586182,40.420656)" d="M18.673493 11.521496C18.673493 12.10006 18.203324 12.569641 17.62403 12.569641 17.044735 12.569641 16.574563 12.10006 16.574563 11.521496 16.574563 10.94293 17.044735 10.473352 17.62403 10.473352 18.203324 10.473352 18.673493 10.94293 18.673493 11.521496ZM36.471307 21.074542C36.471307 22.573428 35.25479 23.788414 33.754014 23.788414 32.253236 23.788414 31.036719 22.573428 31.036719 21.074542 31.036719 19.575655 32.253236 18.360669 33.754014 18.360669 35.25479 18.360669 36.471307 19.575655 36.471307 21.074542ZM38.19303 21.074542C38.19303 23.52335 36.20591 25.507962 33.754014 25.507962 31.302115 25.507962 29.315003 23.52335 29.315003 21.074542 29.315003 18.625733 31.302115 16.64112 33.754014 16.64112 36.20591 16.64112 38.19303 18.625733 38.19303 21.074542ZM35.037889 26.417519V30.238738H35.039239C35.039239 30.51322 34.815607 30.736573 34.540777 30.736573H32.968599C32.693769 30.736573 32.470136 30.51322 32.470136 30.238738V26.417519C32.88103 26.522469 33.310789 26.57898 33.754014 26.57898 34.19724 26.57898 34.62699 26.522469 35.037889 26.417519ZM20.13655 11.618372C23.368475 13.484579 26.601746 15.349441 29.835019 17.214303H29.833672C29.200489 17.85476 28.724928 18.649952 28.466267 19.537981 26.869839 18.563839 25.273076 17.589699 23.67631 16.615555 22.079545 15.641414 20.482779 14.667273 18.88635 13.693132 18.514525 13.908413 18.083422 14.032198 17.62268 14.032198 17.18619 14.032198 16.775296 13.920521 16.418288 13.725424 16.19061 13.98645 15.968323 14.252859 15.751424 14.524651 15.413278 14.948483 15.089951 15.384424 14.781443 15.832476 14.354461 16.458449 14.269188 16.410714 13.794537 16.145012 13.779472 16.136578 13.764014 16.127926 13.748142 16.119069 13.730302 16.107533 13.711168 16.095673 13.691247 16.083329 13.450917 15.934387 13.096132 15.714516 13.519118 15.135507 13.864 14.629599 14.226397 14.135799 14.607654 13.658148 14.866316 13.333883 15.131714 13.016346 15.406542 12.705536 15.216587 12.353014 15.108811 11.949364 15.108811 11.521496 15.108811 11.478439 15.110158 11.434038 15.112852 11.390982L1.828146 3.285692C1.217866 2.190456 .608933 1.096565 0 .001329 5.427855 3.133652 10.855712 6.264631 16.28761 9.394264 16.674256 9.149384 17.133646 9.008102 17.62672 9.008102 18.119795 9.008102 18.580536 9.14938 18.968529 9.395607 20.628275 8.134872 22.453728 7.080002 24.407164 6.272701 27.286124 5.081936 30.443955 4.423986 33.75671 4.423986 37.069467 4.423986 40.22729 5.081936 43.10625 6.272701 45.5083 7.26568 47.716363 8.631363 49.661714 10.297092 52.636323 8.580908 55.61127 6.864723 58.58622 5.148539 61.56117 3.432354 64.53611 1.716169 67.51072-.000015 67.206249 .547604 66.90145 1.094885 66.59665 1.642166 66.29185 2.189447 65.98704 2.736731 65.68257 3.284348 63.308137 4.732779 60.93337 6.181545 58.558599 7.630314 56.183828 9.079081 53.809057 10.527845 51.43462 11.976276 51.94925 12.514477 52.439634 13.07555 52.901723 13.656805 53.231786 14.069874 53.548376 14.495049 53.850149 14.929645 54.355348 15.621231 54.227365 15.863422 53.78683 16.10292 53.746999 16.124318 53.7098 16.14513 53.674699 16.164772 53.28598 16.382275 53.15454 16.455819 52.552797 15.580867 52.298177 15.220273 52.032785 14.867754 51.757955 14.523306 51.260839 13.901686 50.73408 13.306973 50.179037 12.741863 47.873197 14.149025 45.56736 15.555668 43.261846 16.962115 41.855009 17.820338 40.448289 18.678486 39.041765 19.536637 38.7831 18.648606 38.307538 17.853417 37.674356 17.212958 39.45245 16.187027 41.23089 15.161096 43.00932 14.135164 44.785467 13.110556 46.561609 12.085945 48.337419 11.061335 46.603578 9.641832 44.656877 8.469902 42.5539 7.599365 39.841997 6.477219 36.87008 5.858288 33.75536 5.858288 30.64064 5.858288 27.668726 6.477219 24.95682 7.599365 23.147534 8.348808 21.455454 9.320259 19.91426 10.48008 20.05841 10.797617 20.139243 11.150137 20.139243 11.521496 20.139243 11.537642 20.138569 11.553787 20.137896 11.569935 20.137225 11.586082 20.13655 11.602226 20.13655 11.618372Z" fill="#ffffff" fill-rule="evenodd"/>
<path transform="matrix(1,0,0,-1,32.1875,73.90149)" d="M0-.000059V27.992188H13.157432C14.665536 27.51232 16.004364 26.672553 17.173913 25.472886 18.343462 24.273217 18.928238 22.820286 18.928238 21.11409 18.928238 18.101593 17.789465 15.995509 15.51192 14.795841V14.635888C18.34346 13.276265 19.759234 11.143522 19.759234 8.237659 19.759234 4.905249 17.804852 2.159344 13.896093-.000059H0ZM6.278636 16.435387H10.849111C12.203325 17.15519 12.880434 18.248219 12.880434 19.714482 12.880434 21.18074 12.249494 22.34042 10.987611 23.193516H6.278636V16.435387ZM6.278636 4.638655H11.033776C11.587773 4.985226 12.080215 5.53174 12.511102 6.2782 12.972767 7.02466 13.203598 7.77112 13.203598 8.51758 13.203598 9.26404 13.018933 9.943853 12.649602 10.557016 12.28027 11.170179 11.818607 11.623384 11.264611 11.916637H6.278636V4.638655Z" fill="#ffffff"/>
<path transform="matrix(1,0,0,-1,8.037598,73.90149)" d="M10.796283 4.638655H19.759234V-.000059H6.824066C4.583328 1.652817 2.885799 3.745569 1.73148 6.2782 .57716 8.810831 0 11.41011 0 14.07604 0 16.768628 .645061 19.35458 1.935183 21.833893 3.225305 24.313206 5.143512 26.365973 7.689805 27.992188H19.759234V23.193516H10.796283C9.879617 22.367079 9.081778 21.034115 8.402766 19.194624 7.757706 17.355134 7.435175 15.595622 7.435175 13.916087 7.435175 12.236552 7.757706 10.477039 8.402766 8.637548 9.081778 6.798058 9.879617 5.465092 10.796283 4.638655Z" fill="#ffffff"/>
<path transform="matrix(1,0,0,-1,56.33789,73.90149)" d="M6.23736-.000059H0V27.992188H6.23736V16.71531H13.521873V27.992188H19.759234V-.000059H13.521873V11.596729H6.23736V-.000059Z" fill="#ffffff"/>
<path transform="matrix(1,0,0,-1,288.27565,57)" d="M4.600006-.00005V27.199952H9V-.00005H4.600006ZM0 15.199951V19.199952H13.600006V15.199951H0Z" fill="#ffffff"/>
<path transform="matrix(1,0,0,-1,265.5525,57.400026)" d="M9.23999 .000046C7.506657 .000046 5.933322 .440046 4.519989 1.320045 3.133322 2.200045 2.026664 3.386713 1.199997 4.880047 .399997 6.400047 0 8.09338 0 9.960047 0 11.85338 .399997 13.546715 1.199997 15.040049 2.026664 16.560048 3.133322 17.760048 4.519989 18.640049 5.933322 19.546715 7.506657 20.000048 9.23999 20.000048 10.706656 20.000048 11.999994 19.680048 13.119995 19.040049 14.266662 18.426716 15.173329 17.57338 15.839996 16.480048 16.506663 15.386715 16.839997 14.146715 16.839997 12.760048V7.240047C16.839997 5.85338 16.506663 4.61338 15.839996 3.520046 15.199997 2.426712 14.306656 1.560047 13.159988 .920048 12.013321 .306715 10.706656 .000046 9.23999 .000046ZM9.959991 4.160046C11.586658 4.160046 12.893323 4.706715 13.87999 5.800049 14.893323 6.893383 15.399994 8.293381 15.399994 10.000048 15.399994 11.146715 15.173334 12.160049 14.720001 13.040049 14.266668 13.920048 13.626655 14.600048 12.799988 15.080048 11.999988 15.586714 11.053325 15.840048 9.959991 15.840048 8.893325 15.840048 7.946662 15.586714 7.119995 15.080048 6.319995 14.600048 5.679996 13.920048 5.199997 13.040049 4.746664 12.160049 4.519989 11.146715 4.519989 10.000048 4.519989 8.85338 4.746664 7.84005 5.199997 6.960049 5.679996 6.08005 6.319995 5.386713 7.119995 4.880047 7.946662 4.400047 8.893325 4.160046 9.959991 4.160046ZM15.119995 .400047V5.560047L15.87999 10.240047 15.119995 14.880049V19.600049H19.520005V.400047H15.119995ZM10.399994 21.880047C9.413327 21.880047 8.533328 22.09338 7.759995 22.520049 7.013328 22.973381 6.413325 23.573384 5.959991 24.32005 5.533325 25.066716 5.319992 25.906716 5.319992 26.840048 5.319992 27.773383 5.533325 28.613383 5.959991 29.360049 6.413325 30.106715 7.013328 30.693383 7.759995 31.120049 8.533328 31.573382 9.413327 31.800049 10.399994 31.800049 11.359994 31.800049 12.213325 31.573382 12.959991 31.120049 13.706658 30.693383 14.293335 30.106715 14.720001 29.360049 15.146667 28.613383 15.360001 27.773383 15.360001 26.840048 15.360001 25.906716 15.146667 25.066716 14.720001 24.32005 14.293335 23.573384 13.706658 22.973381 12.959991 22.520049 12.213325 22.09338 11.359994 21.880047 10.399994 21.880047ZM10.399994 25.000048C10.879994 25.000048 11.293332 25.173382 11.639999 25.520049 11.986666 25.893382 12.159988 26.333382 12.159988 26.840048 12.159988 27.373383 11.986666 27.813382 11.639999 28.160048 11.293332 28.506714 10.879994 28.680048 10.399994 28.680048 9.839994 28.680048 9.386661 28.506714 9.039993 28.160048 8.719994 27.813382 8.559998 27.373383 8.559998 26.840048 8.559998 26.333382 8.719994 25.893382 9.039993 25.520049 9.386661 25.173382 9.839994 25.000048 10.399994 25.000048Z" fill="#ffffff"/>
<path transform="matrix(1,0,0,-1,257.45558,57)" d="M0 .000048V28.800049H4.399994V.000048H0Z" fill="#ffffff"/>
<path transform="matrix(1,0,0,-1,233.91504,57)" d="M3.160004 10.559998V14.559999H10.160004C11.120004 14.559999 11.960009 14.746666 12.680008 15.119999 13.426676 15.519999 14.013336 16.066666 14.440002 16.76 14.866669 17.48 15.080002 18.32 15.080002 19.279999 15.080002 20.239998 14.866669 21.066666 14.440002 21.76 14.013336 22.48 13.426676 23.026667 12.680008 23.4 11.960009 23.8 11.120004 24 10.160004 24H3.160004V28H10.400009C12.160008 28 13.733343 27.64 15.12001 26.92 16.533345 26.2 17.640004 25.186667 18.440003 23.88 19.26667 22.573334 19.680008 21.039999 19.680008 19.279999 19.680008 17.519999 19.26667 15.986665 18.440003 14.679998 17.640004 13.373332 16.533345 12.359998 15.12001 11.639997 13.733343 10.919998 12.160008 10.559998 10.400009 10.559998H3.160004ZM0-.000002V28H4.600006V-.000002H0Z" fill="#ffffff"/>
<path transform="matrix(1,0,0,-1,199.63282,57.400026)" d="M19.080002 .399965 5.800003 14.919966C4.813336 16.013298 4.066664 17.053299 3.559998 18.039967 3.079997 19.026635 2.840004 20.119965 2.840004 21.319966 2.840004 22.7333 3.186664 23.999966 3.879997 25.119967 4.573331 26.266633 5.520001 27.1733 6.720001 27.839968 7.920001 28.506634 9.293337 28.839966 10.840004 28.839966 12.013337 28.839966 13.080001 28.639967 14.040001 28.239968 15 27.866635 15.839997 27.359967 16.559998 26.719967 17.306664 26.106635 17.92 25.426634 18.400002 24.679968L15.239998 21.879965C14.653331 22.679966 14.013332 23.3333 13.32 23.839966 12.653333 24.346632 11.826671 24.599967 10.840004 24.599967 9.826671 24.599967 8.973332 24.293299 8.279999 23.679966 7.586666 23.0933 7.239998 22.346632 7.239998 21.439967 7.239998 20.533299 7.42667 19.786633 7.800003 19.199967 8.173336 18.6133 8.693334 17.9333 9.360001 17.159968L24.36 .399965H19.080002ZM9.520004-.000036C7.600004-.000036 5.920003 .359966 4.480003 1.079966 3.06667 1.826632 1.960004 2.839966 1.160004 4.119967 .38667 5.426634 0 6.906631 0 8.559965 0 10.239965 .453334 11.746634 1.360001 13.079966 2.293334 14.4133 3.653336 15.4933 5.440002 16.319968L7.480003 13.639967C6.493336 13.106633 5.73333 12.439966 5.199997 11.639967 4.666664 10.866632 4.400002 9.879965 4.400002 8.679966 4.400002 7.719965 4.613334 6.906631 5.040001 6.239965 5.493334 5.573299 6.119998 5.053297 6.919998 4.679964 7.719998 4.333298 8.64 4.159964 9.68 4.159964 11.04 4.159964 12.160001 4.439964 13.040001 4.999964 13.946668 5.559963 14.626669 6.226631 15.080002 6.999964L17.96 3.639967C17.4 2.946634 16.680003 2.319965 15.800003 1.759966 14.920003 1.226633 13.946665 .799967 12.879997 .479967 11.813331 .159967 10.693337-.000036 9.520004-.000036Z" fill="#ffffff"/>
<path transform="matrix(1,0,0,-1,167.81714,65.400028)" d="M9.240005-.000002C7.213339-.000002 5.440006 .373335 3.920006 1.120001 2.400006 1.84 1.173339 2.866665 .240005 4.199999L3.120003 7.08C3.893336 6.119999 4.773335 5.4 5.760002 4.92 6.746669 4.440001 7.933341 4.199999 9.320007 4.199999 11.053341 4.199999 12.426668 4.653334 13.440002 5.559999 14.453336 6.439999 14.960007 7.653332 14.960007 9.199999V13.92L15.720001 18.16 14.960007 22.44V27.6H19.36V9.199999C19.36 7.359999 18.933335 5.76 18.080002 4.4 17.22667 3.013332 16.040005 1.933331 14.520004 1.159998 13.000005 .386665 11.240005-.000002 9.240005-.000002ZM9.040001 8.800001C7.333334 8.800001 5.786668 9.213333 4.400002 10.039999 3.040001 10.893333 1.960004 12.053331 1.160004 13.519999 .38667 14.986666 0 16.626667 0 18.44 0 20.253334 .38667 21.880002 1.160004 23.320002 1.960004 24.760003 3.040001 25.893334 4.400002 26.720002 5.786668 27.573334 7.333334 28 9.040001 28 10.560001 28 11.893334 27.693333 13.040001 27.08 14.186668 26.466668 15.080002 25.613335 15.720001 24.52 16.360003 23.453333 16.680008 22.2 16.680008 20.76V16.039999C16.680008 14.626665 16.346667 13.373334 15.68 12.280001 15.040001 11.186666 14.146667 10.333332 13 9.719999 11.853333 9.106667 10.533334 8.800001 9.040001 8.800001ZM9.920006 12.960001C10.986672 12.960001 11.920001 13.186667 12.720001 13.640001 13.520001 14.093334 14.133339 14.719998 14.560005 15.519999 15.013338 16.346665 15.240005 17.306668 15.240005 18.4 15.240005 19.493332 15.013338 20.439999 14.560005 21.24 14.133339 22.066668 13.520001 22.706667 12.720001 23.16 11.920001 23.613333 10.986672 23.84 9.920006 23.84 8.853338 23.84 7.906668 23.613333 7.080002 23.16 6.280002 22.706667 5.653337 22.066668 5.200005 21.24 4.746671 20.439999 4.520004 19.493332 4.520004 18.4 4.520004 17.333333 4.746671 16.386666 5.200005 15.559999 5.653337 14.733333 6.280002 14.093334 7.080002 13.640001 7.906668 13.186667 8.853338 12.960001 9.920006 12.960001Z" fill="#ffffff"/>
<path transform="matrix(1,0,0,-1,144.80933,65.400028)" d="M9.239998-.000002C7.213331-.000002 5.439998 .373335 3.919998 1.120001 2.399998 1.84 1.173331 2.866665 .239998 4.199999L3.119999 7.08C3.893332 6.119999 4.773332 5.4 5.759998 4.92 6.746665 4.440001 7.933333 4.199999 9.32 4.199999 11.053333 4.199999 12.426664 4.653334 13.439999 5.559999 14.453332 6.439999 14.959999 7.653332 14.959999 9.199999V13.92L15.720001 18.16 14.959999 22.44V27.6H19.359997V9.199999C19.359997 7.359999 18.933335 5.76 18.080002 4.4 17.22667 3.013332 16.04 1.933331 14.52 1.159998 13.000001 .386665 11.239998-.000002 9.239998-.000002ZM9.040001 8.800001C7.333334 8.800001 5.786664 9.213333 4.399998 10.039999 3.039998 10.893333 1.96 12.053331 1.16 13.519999 .386666 14.986666 0 16.626667 0 18.44 0 20.253334 .386666 21.880002 1.16 23.320002 1.96 24.760003 3.039998 25.893334 4.399998 26.720002 5.786664 27.573334 7.333334 28 9.040001 28 10.560001 28 11.893334 27.693333 13.040001 27.08 14.186668 26.466668 15.080002 25.613335 15.720001 24.52 16.360003 23.453333 16.68 22.2 16.68 20.76V16.039999C16.68 14.626665 16.346667 13.373334 15.68 12.280001 15.040001 11.186666 14.146667 10.333332 13 9.719999 11.853333 9.106667 10.533334 8.800001 9.040001 8.800001ZM9.920002 12.960001C10.986669 12.960001 11.920001 13.186667 12.720001 13.640001 13.520001 14.093334 14.133335 14.719998 14.560001 15.519999 15.013334 16.346665 15.240002 17.306668 15.240002 18.4 15.240002 19.493332 15.013334 20.439999 14.560001 21.24 14.133335 22.066668 13.520001 22.706667 12.720001 23.16 11.920001 23.613333 10.986669 23.84 9.920002 23.84 8.853334 23.84 7.906664 23.613333 7.079998 23.16 6.279998 22.706667 5.653334 22.066668 5.200001 21.24 4.746667 20.439999 4.52 19.493332 4.52 18.4 4.52 17.333333 4.746667 16.386666 5.200001 15.559999 5.653334 14.733333 6.279998 14.093334 7.079998 13.640001 7.906664 13.186667 8.853334 12.960001 9.920002 12.960001Z" fill="#ffffff"/>
<path transform="matrix(1,0,0,-1,124.322757,65)" d="M8.199999 7.79995 0 27.199952H4.84L10.440001 12.959949H9.039999L14.960001 27.199952H19.840003L10.92 7.79995H8.199999ZM2.48-.00005 8.440001 12.279949 10.92 7.79995 7.359999-.00005H2.48Z" fill="#ffffff"/>
<path transform="matrix(1,0,0,-1,102.04004,57)" d="M3.16-.000002V3.999998H11.2C12.613333 3.999998 13.706667 4.439999 14.48 5.319998 15.253333 6.199999 15.64 7.213331 15.64 8.359999 15.64 9.133331 15.466668 9.853333 15.120002 10.519999 14.773335 11.186665 14.266666 11.719999 13.599999 12.119999 12.933333 12.52 12.133334 12.719999 11.2 12.719999H3.16V16.72H10.52C11.72 16.72 12.68 17.026665 13.400001 17.64 14.120001 18.253334 14.48 19.16 14.48 20.359999 14.48 21.56 14.120001 22.466668 13.400001 23.08 12.68 23.693333 11.72 24 10.52 24H3.16V28H10.64C12.533334 28 14.106667 27.653334 15.36 26.96 16.613333 26.266665 17.546668 25.373333 18.16 24.28 18.773333 23.186667 19.08 22.013333 19.08 20.76 19.08 19.293334 18.666668 18 17.84 16.88 17.04 15.759999 15.853334 14.853332 14.280002 14.159998L14.64 15.599998C16.4 14.879998 17.773335 13.866666 18.76 12.559999 19.746666 11.253332 20.24 9.719997 20.24 7.959997 20.24 6.519997 19.880002 5.199999 19.16 3.999998 18.466668 2.799997 17.426669 1.826666 16.04 1.08 14.680001 .360001 13.000002-.000002 11.000001-.000002H3.16ZM0-.000002V28H4.6V-.000002H0Z" fill="#ffffff"/>
</svg>
